CalSansText-SemiBold.ufo
<glyph name="numbersign" format="2">
  <advance width="747.55"/>
  <unicode hex="0023"/>
  <outline>
    <contour>
      <point x="353.025" y="0.0" type="line"/>
      <point x="454.77500000000003" y="0.0" type="line"/>
      <point x="513.775" y="235.0" type="line"/>
      <point x="518.425" y="257.675" type="line"/>
      <point x="577.425" y="491.35" type="line"/>
      <point x="584.7750000000001" y="515.0" type="line"/>
      <point x="638.775" y="730.0" type="line"/>
      <point x="535.025" y="730.0" type="line"/>
      <point x="482.025" y="515.0" type="line"/>
      <point x="480.375" y="492.0" type="line"/>
      <point x="421.375" y="257.0" type="line"/>
      <point x="412.025" y="236.0" type="line"/>
    </contour>
    <contour>
      <point x="99.775" y="0.0" type="line"/>
      <point x="200.55" y="0.0" type="line"/>
      <point x="260.55" y="237.0" type="line"/>
      <point x="261.2" y="258.0" type="line"/>
      <point x="320.2" y="492.0" type="line"/>
      <point x="330.55" y="514.0" type="line"/>
      <point x="384.55" y="730.0" type="line"/>
      <point x="281.775" y="730.0" type="line"/>
      <point x="227.775" y="515.0" type="line"/>
      <point x="223.125" y="492.0" type="line"/>
      <point x="165.45" y="260.625" type="line"/>
      <point x="157.77499999999998" y="235.0" type="line"/>
    </contour>
    <contour>
      <point x="60.275000000000006" y="197.825" type="line"/>
      <point x="672.2750000000001" y="197.825" type="line"/>
      <point x="672.2750000000001" y="291.175" type="line"/>
      <point x="60.275000000000006" y="291.175" type="line"/>
    </contour>
    <contour>
      <point x="75.275" y="454.82500000000005" type="line"/>
      <point x="687.2750000000001" y="454.82500000000005" type="line"/>
      <point x="687.2750000000001" y="548.175" type="line"/>
      <point x="75.275" y="548.175" type="line"/>
    </contour>
  </outline>
</glyph>
<glyph name="percent" format="2">
  <advance width="741.0"/>
  <unicode hex="0025"/>
  <outline>
    <contour>
      <point x="73.5" y="0.0" type="line"/>
      <point x="167.25" y="0.0" type="line"/>
      <point x="664.25" y="700.0" type="line"/>
      <point x="571.5" y="700.0" type="line"/>
    </contour>
    <contour>
      <point x="429.5" y="124.92499999999998" type="curve" smooth="yes"/>
      <point x="519.525" y="124.92499999999998"/>
      <point x="585.5" y="193.89999999999998"/>
      <point x="585.5" y="276.92499999999995" type="curve" smooth="yes"/>
      <point x="585.5" y="360.625"/>
      <point x="519.85" y="431.92499999999995"/>
      <point x="429.5" y="431.92499999999995" type="curve" smooth="yes"/>
      <point x="339.475" y="431.92499999999995"/>
      <point x="274.5" y="360.95"/>
      <point x="274.5" y="276.92499999999995" type="curve" smooth="yes"/>
      <point x="274.5" y="193.89999999999998"/>
      <point x="339.475" y="124.92499999999998"/>
    </contour>
    <contour>
      <point x="429.5" y="194.84999999999997" type="curve" smooth="yes"/>
      <point x="382.65000000000003" y="194.84999999999997"/>
      <point x="350.75" y="231.39999999999998"/>
      <point x="350.75" y="276.59999999999997" type="curve" smooth="yes"/>
      <point x="350.75" y="324.45"/>
      <point x="382.65000000000003" y="361.0"/>
      <point x="429.5" y="361.0" type="curve" smooth="yes"/>
      <point x="476.675" y="361.0"/>
      <point x="508.57500000000005" y="324.45"/>
      <point x="508.57500000000005" y="276.59999999999997" type="curve" smooth="yes"/>
      <point x="510.25" y="230.075"/>
      <point x="478.0" y="194.17499999999998"/>
    </contour>
    <contour>
      <point x="310.5" y="268.725" type="curve" smooth="yes"/>
      <point x="400.525" y="268.725"/>
      <point x="466.5" y="337.70000000000005"/>
      <point x="466.5" y="420.725" type="curve" smooth="yes"/>
      <point x="466.5" y="503.75"/>
      <point x="401.525" y="575.725"/>
      <point x="310.5" y="575.725" type="curve" smooth="yes"/>
      <point x="220.47499999999997" y="575.725"/>
      <point x="155.5" y="504.75"/>
      <point x="155.5" y="420.725" type="curve" smooth="yes"/>
      <point x="155.5" y="337.70000000000005"/>
      <point x="220.47499999999997" y="268.725"/>
    </contour>
    <contour>
      <point x="310.5" y="338.65000000000003" type="curve" smooth="yes"/>
      <point x="263.65" y="338.65000000000003"/>
      <point x="231.75" y="375.20000000000005"/>
      <point x="231.75" y="420.40000000000003" type="curve" smooth="yes"/>
      <point x="231.75" y="468.25"/>
      <point x="263.65" y="504.8"/>
      <point x="310.5" y="504.8" type="curve" smooth="yes"/>
      <point x="358.35" y="504.8"/>
      <point x="389.575" y="468.25"/>
      <point x="389.575" y="420.40000000000003" type="curve" smooth="yes"/>
      <point x="391.25" y="373.875"/>
      <point x="359.67499999999995" y="338.65000000000003"/>
    </contour>
  </outline>
</glyph>
<glyph name="slash" format="2">
  <advance width="508.82500000000005"/>
  <unicode hex="002F"/>
  <outline>
    <contour>
      <point x="52.275" y="-13.0" type="line"/>
      <point x="176.225" y="-13.0" type="line"/>
      <point x="451.55" y="740.0" type="line"/>
      <point x="325.6" y="740.0" type="line"/>
    </contour>
  </outline>
</glyph>
<glyph name="M" format="2">
  <advance width="939.875"/>
  <unicode hex="004D"/>
  <anchor x="471.125" y="0.0" name="bottom"/>
  <anchor x="739.775" y="0.0" name="ogonek"/>
  <anchor x="471.09999999999997" y="700.0" name="top"/>
  <outline>
    <contour>
      <point x="80.64999999999999" y="0.0" type="line"/>
      <point x="200.10000000000002" y="0.0" type="line"/>
      <point x="200.10000000000002" y="313.225" type="line" smooth="yes"/>
      <point x="200.10000000000002" y="421.54999999999995"/>
      <point x="196.425" y="486.225"/>
      <point x="187.725" y="529.225" type="curve"/>
      <point x="191.72500000000002" y="529.225" type="line"/>
      <point x="440.325" y="0.0" type="line"/>
      <point x="499.875" y="0.0" type="line"/>
      <point x="747.825" y="529.225" type="line"/>
      <point x="751.825" y="529.225" type="line"/>
      <point x="743.45" y="489.55"/>
      <point x="739.775" y="424.225"/>
      <point x="739.775" y="313.225" type="curve" smooth="yes"/>
      <point x="739.775" y="0.0" type="line"/>
      <point x="859.2250000000001" y="0.0" type="line"/>
      <point x="859.2250000000001" y="700.0" type="line"/>
      <point x="710.425" y="700.0" type="line"/>
      <point x="549.7750000000001" y="363.375" type="line" smooth="yes"/>
      <point x="506.45" y="272.05"/>
      <point x="482.775" y="215.375"/>
      <point x="474.77500000000003" y="179.675" type="curve"/>
      <point x="470.775" y="179.675" type="line"/>
      <point x="462.775" y="215.7"/>
      <point x="437.775" y="272.375"/>
      <point x="394.77500000000003" y="363.375" type="curve" smooth="yes"/>
      <point x="235.45" y="700.0" type="line"/>
      <point x="80.64999999999999" y="700.0" type="line"/>
    </contour>
  </outline>
</glyph>
<glyph name="w" format="2">
  <advance width="846.4250000000001"/>
  <unicode hex="0077"/>
  <anchor x="426.075" y="0.0" name="bottom"/>
  <anchor x="426.075" y="500.125" name="top"/>
  <outline>
    <contour>
      <point x="180.05" y="0.0" type="line"/>
      <point x="315.875" y="0.0" type="line"/>
      <point x="400.425" y="284.4" type="line" smooth="yes"/>
      <point x="411.7" y="322.575"/>
      <point x="417.375" y="355.225"/>
      <point x="421.725" y="389.6" type="curve"/>
      <point x="429.075" y="389.6" type="line"/>
      <point x="433.42499999999995" y="355.54999999999995"/>
      <point x="439.775" y="322.25"/>
      <point x="451.725" y="284.4" type="curve" smooth="yes"/>
      <point x="538.2750000000001" y="0.0" type="line"/>
      <point x="667.0500000000001" y="0.0" type="line"/>
      <point x="830.7750000000001" y="500.125" type="line"/>
      <point x="703.275" y="500.125" type="line"/>
      <point x="628.475" y="216.4" type="line" smooth="yes"/>
      <point x="619.5" y="183.45"/>
      <point x="609.8499999999999" y="144.25"/>
      <point x="606.825" y="110.525" type="curve"/>
      <point x="599.475" y="110.525" type="line"/>
      <point x="596.125" y="144.25"/>
      <point x="587.15" y="183.8"/>
      <point x="577.175" y="217.4" type="curve" smooth="yes"/>
      <point x="493.65000000000003" y="500.125" type="line"/>
      <point x="358.15" y="500.125" type="line"/>
      <point x="274.95" y="217.4" type="line" smooth="yes"/>
      <point x="264.975" y="183.125"/>
      <point x="257.325" y="144.575"/>
      <point x="253.625" y="110.525" type="curve"/>
      <point x="246.275" y="110.525" type="line"/>
      <point x="241.925" y="144.9"/>
      <point x="232.95" y="182.8"/>
      <point x="224.32500000000002" y="216.4" type="curve" smooth="yes"/>
      <point x="151.875" y="500.125" type="line"/>
      <point x="15.649999999999999" y="500.125" type="line"/>
    </contour>
  </outline>
</glyph>
<glyph name="x" format="2">
  <advance width="559.075"/>
  <unicode hex="0078"/>
  <anchor x="279.875" y="0.0" name="bottom"/>
  <anchor x="279.875" y="500.125" name="top"/>
  <outline>
    <contour>
      <point x="20.65" y="0.0" type="line"/>
      <point x="160.2" y="0.0" type="line"/>
      <point x="277.875" y="174.375" type="line"/>
      <point x="281.875" y="174.375" type="line"/>
      <point x="395.875" y="0.0" type="line"/>
      <point x="538.425" y="0.0" type="line"/>
      <point x="352.125" y="251.72500000000002" type="line"/>
      <point x="527.775" y="500.125" type="line"/>
      <point x="390.57500000000005" y="500.125" type="line"/>
      <point x="281.2" y="332.75" type="line"/>
      <point x="277.2" y="332.75" type="line"/>
      <point x="171.825" y="500.125" type="line"/>
      <point x="31.625" y="500.125" type="line"/>
      <point x="207.27499999999998" y="253.4" type="line"/>
    </contour>
  </outline>
</glyph>
<glyph name="braceleft" format="2">
  <advance width="446.625"/>
  <unicode hex="007B"/>
  <outline>
    <contour>
      <point x="325.95" y="-224.0" type="curve" smooth="yes"/>
      <point x="343.25" y="-224.0"/>
      <point x="363.6" y="-223.0"/>
      <point x="385.97499999999997" y="-220.0" type="curve"/>
      <point x="385.97499999999997" y="-126.65" type="line"/>
      <point x="376.725" y="-128.625"/>
      <point x="367.45" y="-129.95"/>
      <point x="355.925" y="-129.95" type="curve" smooth="yes"/>
      <point x="307.75" y="-129.95"/>
      <point x="282.475" y="-100.35"/>
      <point x="282.475" y="-55.0" type="curve" smooth="yes"/>
      <point x="282.475" y="127.0" type="line" smooth="yes"/>
      <point x="282.475" y="241.0"/>
      <point x="189.475" y="270.0"/>
      <point x="171.475" y="272.0" type="curve"/>
      <point x="171.475" y="279.0" type="line"/>
      <point x="189.475" y="281.0"/>
      <point x="282.475" y="310.0"/>
      <point x="282.475" y="424.0" type="curve" smooth="yes"/>
      <point x="282.475" y="585.0" type="line" smooth="yes"/>
      <point x="282.475" y="630.35"/>
      <point x="307.75" y="659.95"/>
      <point x="355.925" y="659.95" type="curve" smooth="yes"/>
      <point x="367.45" y="659.95"/>
      <point x="376.725" y="658.625"/>
      <point x="385.97499999999997" y="656.65" type="curve"/>
      <point x="385.97499999999997" y="750.0" type="line"/>
      <point x="363.6" y="753.0"/>
      <point x="343.25" y="754.0"/>
      <point x="325.95" y="754.0" type="curve" smooth="yes"/>
      <point x="222.97500000000002" y="754.0"/>
      <point x="172.975" y="686.0"/>
      <point x="172.975" y="593.0" type="curve" smooth="yes"/>
      <point x="172.975" y="428.0" type="line" smooth="yes"/>
      <point x="172.975" y="361.625"/>
      <point x="145.975" y="334.625"/>
      <point x="65.975" y="329.27500000000003" type="curve"/>
      <point x="65.975" y="221.04999999999998" type="line"/>
      <point x="142.975" y="216.35000000000002"/>
      <point x="172.975" y="191.025"/>
      <point x="172.975" y="122.0" type="curve" smooth="yes"/>
      <point x="172.975" y="-63.0" type="line" smooth="yes"/>
      <point x="172.975" y="-156.0"/>
      <point x="222.97500000000002" y="-224.0"/>
    </contour>
  </outline>
</glyph>
<glyph name="cent" format="2">
  <advance width="508.625"/>
  <unicode hex="00A2"/>
  <anchor x="275.8" y="497.75" name="_TopCurrency"/>
  <outline>
    <contour>
      <point x="283.2" y="30.0" type="curve" smooth="yes"/>
      <point x="365.6" y="30.0"/>
      <point x="430.25" y="64.05"/>
      <point x="476.6" y="120.7" type="curve"/>
      <point x="399.65000000000003" y="186.95" type="line"/>
      <point x="372.7" y="152.7"/>
      <point x="335.77500000000003" y="131.675"/>
      <point x="284.5" y="131.675" type="curve" smooth="yes"/>
      <point x="199.92499999999998" y="131.675"/>
      <point x="145.775" y="191.275"/>
      <point x="145.775" y="276.375" type="curve" smooth="yes"/>
      <point x="145.775" y="361.475"/>
      <point x="199.6" y="424.775"/>
      <point x="283.2" y="424.775" type="curve" smooth="yes"/>
      <point x="331.125" y="424.775"/>
      <point x="366.35" y="404.775"/>
      <point x="393.6" y="365.825" type="curve"/>
      <point x="474.225" y="438.15000000000003" type="line"/>
      <point x="427.54999999999995" y="493.1"/>
      <point x="363.25" y="526.775"/>
      <point x="282.225" y="526.45" type="curve" smooth="yes"/>
      <point x="137.075" y="525.8"/>
      <point x="34.05" y="411.625"/>
      <point x="34.05" y="276.375" type="curve" smooth="yes"/>
      <point x="34.05" y="141.125"/>
      <point x="137.725" y="30.0"/>
    </contour>
    <component base="verticalTopCurrencycomb" xOffset="275.8" yOffset="-155.25"/>
    <component base="verticalBottomCurrencycomb" xOffset="275.8" yOffset="2.0"/>
  </outline>
</glyph>
<glyph name="ordfeminine" format="2">
  <advance width="523.425"/>
  <unicode hex="00AA"/>
  <outline>
    <contour>
      <point x="242.95" y="310.675" type="curve" smooth="yes"/>
      <point x="301.8" y="310.675"/>
      <point x="338.425" y="336.225"/>
      <point x="360.725" y="374.425" type="curve"/>
      <point x="364.375" y="374.425" type="line"/>
      <point x="364.375" y="320.0" type="line"/>
      <point x="457.125" y="320.0" type="line"/>
      <point x="457.125" y="704.0250000000001" type="line"/>
      <point x="363.025" y="704.0250000000001" type="line"/>
      <point x="363.025" y="650.575" type="line"/>
      <point x="359.375" y="650.575" type="line"/>
      <point x="337.075" y="687.775"/>
      <point x="299.475" y="713.0"/>
      <point x="242.95" y="713.0" type="curve" smooth="yes"/>
      <point x="134.975" y="713.0"/>
      <point x="50.95" y="624.275"/>
      <point x="50.95" y="511.0" type="curve" smooth="yes"/>
      <point x="50.95" y="396.725"/>
      <point x="134.975" y="310.675"/>
    </contour>
    <contour>
      <point x="261.45" y="399.05" type="curve" smooth="yes"/>
      <point x="195.65" y="399.05"/>
      <point x="154.45" y="449.92499999999995"/>
      <point x="154.45" y="512.0" type="curve" smooth="yes"/>
      <point x="154.45" y="574.075"/>
      <point x="195.65" y="623.95"/>
      <point x="261.45" y="623.95" type="curve" smooth="yes"/>
      <point x="325.9" y="623.95"/>
      <point x="368.775" y="571.15"/>
      <point x="368.775" y="511.0" type="curve" smooth="yes"/>
      <point x="368.775" y="449.225"/>
      <point x="325.9" y="399.05"/>
    </contour>
    <contour>
      <point x="71.55" y="171.3" type="line"/>
      <point x="457.125" y="171.3" type="line"/>
      <point x="457.125" y="256.0" type="line"/>
      <point x="71.55" y="256.0" type="line"/>
    </contour>
  </outline>
</glyph>
<glyph name="OE" format="2">
  <advance width="1100.0749999999998"/>
  <unicode hex="0152"/>
  <anchor x="623.3" y="0.0" name="bottom"/>
  <anchor x="938.4000000000001" y="0.0" name="ogonek"/>
  <anchor x="623.3" y="700.0" name="top"/>
  <outline>
    <contour>
      <point x="667.0250000000001" y="167.225" type="curve"/>
      <point x="600.675" y="83.3" type="line"/>
      <point x="628.25" y="83.3" type="line"/>
      <point x="634.9499999999999" y="616.025" type="line"/>
      <point x="604.925" y="616.025" type="line"/>
      <point x="667.0250000000001" y="530.475" type="line"/>
      <point x="622.425" y="643.45"/>
      <point x="533.875" y="713.0"/>
      <point x="391.025" y="713.0" type="curve" smooth="yes"/>
      <point x="190.425" y="713.0"/>
      <point x="41.675" y="550.0"/>
      <point x="41.675" y="349.0" type="curve" smooth="yes"/>
      <point x="41.675" y="148.675"/>
      <point x="190.425" y="-13.0"/>
      <point x="391.025" y="-13.0" type="curve" smooth="yes"/>
      <point x="533.875" y="-13.0"/>
      <point x="622.425" y="56.875"/>
    </contour>
    <contour>
      <point x="394.4" y="104.85" type="curve" smooth="yes"/>
      <point x="264.75" y="104.85"/>
      <point x="165.5" y="194.20000000000002"/>
      <point x="165.5" y="349.0" type="curve" smooth="yes"/>
      <point x="165.5" y="503.79999999999995"/>
      <point x="264.75" y="595.15"/>
      <point x="394.4" y="595.15" type="curve" smooth="yes"/>
      <point x="523.7" y="595.15"/>
      <point x="623.3" y="506.725"/>
      <point x="623.3" y="349.325" type="curve" smooth="yes"/>
      <point x="623.3" y="194.525"/>
      <point x="523.7" y="104.85"/>
    </contour>
    <component base="E" xOffset="542.6500000000001"/>
  </outline>
</glyph>
<glyph name="Xi" format="2">
  <advance width="546.425"/>
  <unicode hex="039E"/>
  <outline>
    <contour>
      <point x="69.65" y="0.0" type="line"/>
      <point x="476.775" y="0.0" type="line"/>
      <point x="476.775" y="115.82499999999999" type="line"/>
      <point x="69.65" y="115.82499999999999" type="line"/>
    </contour>
    <contour>
      <point x="74.65" y="297.075" type="line"/>
      <point x="469.77500000000003" y="297.075" type="line"/>
      <point x="469.77500000000003" y="412.9" type="line"/>
      <point x="74.65" y="412.9" type="line"/>
    </contour>
    <contour>
      <point x="69.65" y="584.175" type="line"/>
      <point x="474.77500000000003" y="584.175" type="line"/>
      <point x="474.77500000000003" y="700.0" type="line"/>
      <point x="69.65" y="700.0" type="line"/>
    </contour>
  </outline>
</glyph>
<glyph name="fraction" format="2">
  <advance width="585.45"/>
  <unicode hex="2044"/>
  <outline>
    <contour>
      <point x="-66.925" y="0.0" type="line"/>
      <point x="36.05" y="0.0" type="line"/>
      <point x="653.0500000000001" y="700.0" type="line"/>
      <point x="550.075" y="700.0" type="line"/>
    </contour>
  </outline>
</glyph>
<glyph name="colonsign" format="2">
  <advance width="641.05"/>
  <unicode hex="20A1"/>
  <outline>
    <contour>
      <point x="373.425" y="27.0" type="curve" smooth="yes"/>
      <point x="488.8" y="27.0"/>
      <point x="563.0" y="67.25"/>
      <point x="619.375" y="135.3" type="curve"/>
      <point x="533.675" y="208.29999999999998" type="line"/>
      <point x="484.85" y="149.425"/>
      <point x="443.85" y="135.45"/>
      <point x="377.075" y="135.45" type="curve" smooth="yes"/>
      <point x="244.55" y="135.45"/>
      <point x="158.05" y="228.05"/>
      <point x="158.05" y="351.975" type="curve" smooth="yes"/>
      <point x="158.05" y="465.80000000000007"/>
      <point x="236.39999999999998" y="564.55"/>
      <point x="373.75" y="564.55" type="curve" smooth="yes"/>
      <point x="435.2" y="564.55"/>
      <point x="484.05" y="548.65"/>
      <point x="531.4" y="493.0" type="curve"/>
      <point x="617.1" y="572.375" type="line"/>
      <point x="544.0" y="645.725"/>
      <point x="477.42499999999995" y="673.0"/>
      <point x="373.425" y="673.0" type="curve" smooth="yes"/>
      <point x="170.675" y="673.0"/>
      <point x="41.675" y="526.75"/>
      <point x="41.675" y="349.0" type="curve" smooth="yes"/>
      <point x="41.675" y="172.25"/>
      <point x="178.675" y="27.0"/>
    </contour>
    <contour>
      <point x="428.04999999999995" y="-69.0" type="line"/>
      <point x="516.05" y="775.0" type="line"/>
      <point x="435.275" y="775.0" type="line"/>
      <point x="347.275" y="-69.0" type="line"/>
    </contour>
    <contour>
      <point x="278.075" y="-69.0" type="line"/>
      <point x="366.075" y="775.0" type="line"/>
      <point x="285.3" y="775.0" type="line"/>
      <point x="197.3" y="-69.0" type="line"/>
    </contour>
  </outline>
</glyph>
<glyph name="naira" format="2">
  <advance width="739.175"/>
  <unicode hex="20A6"/>
  <anchor x="374.9684375" y="30.0" name="bottom"/>
  <anchor x="640.585795" y="30.0" name="ogonek"/>
  <anchor x="366.46112" y="669.94" name="top"/>
  <outline>
    <contour>
      <point x="0.0" y="319.275" type="line"/>
      <point x="739.175" y="319.275" type="line"/>
      <point x="739.175" y="400.05" type="line"/>
      <point x="0.0" y="400.05" type="line"/>
    </contour>
    <component base="N" xScale="0.9452575" yScale="0.9141999999999999" xOffset="4.675" yOffset="30.0"/>
  </outline>
</glyph>
<glyph name="won" format="2">
  <advance width="982.95"/>
  <unicode hex="20A9"/>
  <outline>
    <contour>
      <point x="235.05" y="30.0" type="line"/>
      <point x="339.45000000000005" y="30.0" type="line"/>
      <point x="464.4" y="416.75" type="line" smooth="yes"/>
      <point x="481.42499999999995" y="469.425"/>
      <point x="487.1" y="492.775"/>
      <point x="490.42499999999995" y="518.1" type="curve"/>
      <point x="495.1" y="518.1" type="line"/>
      <point x="499.775" y="492.775"/>
      <point x="506.125" y="469.75"/>
      <point x="523.15" y="416.75" type="curve" smooth="yes"/>
      <point x="644.85" y="30.0" type="line"/>
      <point x="749.25" y="30.0" type="line"/>
      <point x="941.0" y="670.0" type="line"/>
      <point x="815.85" y="670.0" type="line"/>
      <point x="716.375" y="285.5" type="line" smooth="yes"/>
      <point x="703.05" y="232.82500000000002"/>
      <point x="700.35" y="202.075"/>
      <point x="695.0" y="177.075" type="curve"/>
      <point x="691.675" y="177.075" type="line"/>
      <point x="686.6500000000001" y="202.075"/>
      <point x="682.6" y="231.825"/>
      <point x="665.9" y="285.5" type="curve" smooth="yes"/>
      <point x="547.525" y="670.0" type="line"/>
      <point x="439.7" y="670.0" type="line"/>
      <point x="320.35" y="285.5" type="line" smooth="yes"/>
      <point x="304.0" y="233.5"/>
      <point x="298.95" y="202.075"/>
      <point x="293.925" y="177.075" type="curve"/>
      <point x="290.925" y="177.075" type="line"/>
      <point x="285.9" y="202.075"/>
      <point x="283.225" y="231.5"/>
      <point x="269.225" y="285.5" type="curve" smooth="yes"/>
      <point x="171.05" y="670.0" type="line"/>
      <point x="44.6" y="670.0" type="line"/>
    </contour>
    <contour>
      <point x="30.25" y="278.15" type="line"/>
      <point x="952.7" y="278.15" type="line"/>
      <point x="952.7" y="340.15" type="line"/>
      <point x="30.25" y="340.15" type="line"/>
    </contour>
    <contour>
      <point x="30.25" y="379.7" type="line"/>
      <point x="952.7" y="379.7" type="line"/>
      <point x="952.7" y="441.7" type="line"/>
      <point x="30.25" y="441.7" type="line"/>
    </contour>
  </outline>
</glyph>
<glyph name="manat" format="2">
  <advance width="545.475"/>
  <unicode hex="20BC"/>
  <outline>
    <contour>
      <point x="47.974999999999994" y="30.0" type="line"/>
      <point x="164.775" y="30.0" type="line"/>
      <point x="164.775" y="194.875" type="line" smooth="yes"/>
      <point x="164.775" y="286.5"/>
      <point x="204.39999999999998" y="328.75"/>
      <point x="275.275" y="328.75" type="curve" smooth="yes"/>
      <point x="348.175" y="328.75"/>
      <point x="380.375" y="286.5"/>
      <point x="380.375" y="194.875" type="curve" smooth="yes"/>
      <point x="380.375" y="30.0" type="line"/>
      <point x="497.5" y="30.0" type="line"/>
      <point x="497.5" y="217.14999999999998" type="line" smooth="yes"/>
      <point x="497.5" y="351.075"/>
      <point x="417.825" y="432.125"/>
      <point x="273.925" y="432.125" type="curve" smooth="yes"/>
      <point x="131.375" y="432.125"/>
      <point x="47.974999999999994" y="351.075"/>
      <point x="47.974999999999994" y="217.14999999999998" type="curve" smooth="yes"/>
    </contour>
    <contour>
      <point x="233.175" y="30.0" type="line"/>
      <point x="313.95000000000005" y="30.0" type="line"/>
      <point x="313.95000000000005" y="500.125" type="line"/>
      <point x="233.175" y="500.125" type="line"/>
    </contour>
  </outline>
</glyph>
<glyph name="literSign" format="2">
  <advance width="506.8"/>
  <unicode hex="2113"/>
  <outline>
    <contour>
      <point x="76.75" y="122.975"/>
      <point x="144.95" y="-11.65"/>
      <point x="303.55" y="-11.65" type="curve" smooth="yes"/>
      <point x="394.3" y="-11.65"/>
      <point x="463.45000000000005" y="60.475"/>
      <point x="496.8" y="156.625" type="curve"/>
      <point x="431.9" y="196.45000000000002" type="line"/>
      <point x="398.525" y="110.42500000000001"/>
      <point x="349.5" y="89.07499999999999"/>
      <point x="308.575" y="89.07499999999999" type="curve" smooth="yes"/>
      <point x="219.575" y="89.07499999999999"/>
      <point x="194.875" y="195.89999999999998"/>
      <point x="194.875" y="285.05" type="curve" smooth="yes"/>
      <point x="194.875" y="353.9"/>
      <point x="208.525" y="435.075"/>
      <point x="231.175" y="515.025" type="curve" smooth="yes"/>
      <point x="248.47500000000002" y="574.575"/>
      <point x="275.375" y="600.85"/>
      <point x="296.95" y="600.85" type="curve" smooth="yes"/>
      <point x="349.575" y="600.85"/>
      <point x="342.5" y="532.0"/>
      <point x="331.875" y="493.825" type="curve" smooth="yes"/>
      <point x="285.575" y="340.6"/>
      <point x="169.7" y="257.075"/>
      <point x="2.0" y="141.05" type="curve"/>
      <point x="51.5" y="74.475" type="line"/>
      <point x="219.8" y="190.45"/>
      <point x="366.475" y="284.575"/>
      <point x="424.17499999999995" y="475.35" type="curve" smooth="yes"/>
      <point x="457.875" y="587.525"/>
      <point x="428.80000000000007" y="714.325"/>
      <point x="296.6" y="714.325" type="curve" smooth="yes"/>
      <point x="225.85" y="714.325"/>
      <point x="150.425" y="663.275"/>
      <point x="116.72500000000001" y="545.825" type="curve" smooth="yes"/>
      <point x="93.4" y="463.525"/>
      <point x="76.75" y="371.625"/>
      <point x="76.75" y="287.725" type="curve" smooth="yes"/>
    </contour>
  </outline>
</glyph>
<glyph name="because" format="2">
  <advance width="595.95"/>
  <unicode hex="2235"/>
  <outline>
    <contour>
      <point x="459.0" y="288.0" type="curve" smooth="yes"/>
      <point x="484.0" y="288.0"/>
      <point x="504.0" y="308.0"/>
      <point x="504.0" y="333.0" type="curve" smooth="yes"/>
      <point x="504.0" y="358.0"/>
      <point x="484.0" y="378.0"/>
      <point x="459.0" y="378.0" type="curve" smooth="yes"/>
      <point x="434.0" y="378.0"/>
      <point x="414.0" y="358.0"/>
      <point x="414.0" y="333.0" type="curve" smooth="yes"/>
      <point x="414.0" y="308.0"/>
      <point x="434.0" y="288.0"/>
    </contour>
    <contour>
      <point x="297.0" y="0.0" type="curve" smooth="yes"/>
      <point x="322.0" y="0.0"/>
      <point x="342.0" y="20.0"/>
      <point x="342.0" y="45.0" type="curve" smooth="yes"/>
      <point x="342.0" y="70.0"/>
      <point x="322.0" y="90.0"/>
      <point x="297.0" y="90.0" type="curve" smooth="yes"/>
      <point x="272.0" y="90.0"/>
      <point x="252.0" y="70.0"/>
      <point x="252.0" y="45.0" type="curve" smooth="yes"/>
      <point x="252.0" y="20.0"/>
      <point x="272.0" y="0.0"/>
    </contour>
    <contour>
      <point x="135.0" y="288.0" type="curve" smooth="yes"/>
      <point x="160.0" y="288.0"/>
      <point x="180.0" y="308.0"/>
      <point x="180.0" y="333.0" type="curve" smooth="yes"/>
      <point x="180.0" y="358.0"/>
      <point x="160.0" y="378.0"/>
      <point x="135.0" y="378.0" type="curve" smooth="yes"/>
      <point x="110.0" y="378.0"/>
      <point x="90.0" y="358.0"/>
      <point x="90.0" y="333.0" type="curve" smooth="yes"/>
      <point x="90.0" y="308.0"/>
      <point x="110.0" y="288.0"/>
    </contour>
  </outline>
</glyph>
<glyph name="lessequal" format="2">
  <advance width="596.0"/>
  <unicode hex="2264"/>
  <outline>
    <contour>
      <point x="531.0" y="220.0" type="line"/>
      <point x="530.325" y="325.925" type="line"/>
      <point x="274.95" y="428.35" type="line"/>
      <point x="274.95" y="431.0" type="line"/>
      <point x="530.325" y="534.075" type="line"/>
      <point x="531.0" y="640.0" type="line"/>
      <point x="52.0" y="430.0" type="line"/>
    </contour>
    <contour>
      <point x="79.0" y="87.175" type="line"/>
      <point x="531.0" y="87.175" type="line"/>
      <point x="531.0" y="184.825" type="line"/>
      <point x="79.0" y="184.825" type="line"/>
    </contour>
  </outline>
</glyph>
<glyph name="greaterequal" format="2">
  <advance width="596.0"/>
  <unicode hex="2265"/>
  <outline>
    <contour>
      <point x="65.0" y="220.0" type="line"/>
      <point x="544.0" y="430.0" type="line"/>
      <point x="65.0" y="640.0" type="line"/>
      <point x="65.0" y="534.075" type="line"/>
      <point x="321.05" y="431.65" type="line"/>
      <point x="321.05" y="429.0" type="line"/>
      <point x="65.675" y="325.925" type="line"/>
    </contour>
    <contour>
      <point x="65.0" y="87.175" type="line"/>
      <point x="517.0" y="87.175" type="line"/>
      <point x="517.0" y="184.825" type="line"/>
      <point x="65.0" y="184.825" type="line"/>
    </contour>
  </outline>
</glyph>
<glyph name="fi" format="2">
  <advance width="624.45"/>
  <unicode hex="FB01"/>
  <anchor x="171.875" y="0.0" name="bottom_1"/>
  <anchor x="266.975" y="700.0" name="top_1"/>
  <anchor x="495.225" y="0.0" name="bottom_2"/>
  <anchor x="468.70000000000005" y="0.0" name="ogonek_2"/>
  <anchor x="495.225" y="500.125" name="top_2"/>
  <anchor x="384.525" y="0.0" name="caret_1"/>
  <outline>
    <contour>
      <point x="19.7" y="395.725" type="line"/>
      <point x="543.45" y="395.725" type="line"/>
      <point x="553.45" y="500.125" type="line"/>
      <point x="19.7" y="500.125" type="line"/>
    </contour>
    <component base="f"/>
    <component base="i" xOffset="365.675"/>
  </outline>
</glyph>
<glyph name=".notdef" format="2">
  <advance width="600.0"/>
  <outline>
    <contour>
      <point x="65.0" y="0.0" type="line"/>
      <point x="535.0" y="0.0" type="line"/>
      <point x="535.0" y="700.0" type="line"/>
      <point x="65.0" y="700.0" type="line"/>
    </contour>
    <contour>
      <point x="100.0" y="35.0" type="line"/>
      <point x="100.0" y="665.0" type="line"/>
      <point x="500.0" y="665.0" type="line"/>
      <point x="500.0" y="35.0" type="line"/>
    </contour>
  </outline>
</glyph>
<glyph name="f_l.ss11" format="2">
  <advance width="641.125"/>
  <anchor x="384.525" y="0.0" name="caret_1"/>
  <outline>
    <contour>
      <point x="114.3" y="0.0" type="line"/>
      <point x="231.425" y="0.0" type="line"/>
      <point x="231.425" y="503.175" type="line" smooth="yes"/>
      <point x="231.425" y="568.3"/>
      <point x="273.7" y="605.25"/>
      <point x="343.225" y="605.25" type="curve" smooth="yes"/>
      <point x="410.45" y="605.25"/>
      <point x="454.025" y="569.65"/>
      <point x="454.025" y="507.90000000000003" type="curve" smooth="yes"/>
      <point x="454.025" y="0.0" type="line"/>
      <point x="571.15" y="0.0" type="line"/>
      <point x="571.15" y="515.95" type="line" smooth="yes"/>
      <point x="571.15" y="630.6"/>
      <point x="472.725" y="713.0"/>
      <point x="343.225" y="713.0" type="curve" smooth="yes"/>
      <point x="211.425" y="713.0"/>
      <point x="114.3" y="630.6"/>
      <point x="114.3" y="515.95" type="curve" smooth="yes"/>
    </contour>
    <contour>
      <point x="19.025" y="395.725" type="line"/>
      <point x="384.85" y="395.725" type="line"/>
      <point x="384.85" y="500.125" type="line"/>
      <point x="19.025" y="500.125" type="line"/>
    </contour>
  </outline>
</glyph>
<glyph name="guarani.tf.ss02" format="2">
  <advance width="596.0"/>
  <anchor x="322.7" y="653.0" name="_TopCurrency"/>
  <outline>
    <contour>
      <point x="326.675" y="24.925" type="curve" smooth="yes"/>
      <point x="432.05000000000007" y="24.925"/>
      <point x="522.125" y="67.65"/>
      <point x="577.325" y="126.925" type="curve"/>
      <point x="577.325" y="385.175" type="line"/>
      <point x="278.525" y="385.175" type="line"/>
      <point x="278.525" y="286.125" type="line"/>
      <point x="513.375" y="286.125" type="line"/>
      <point x="467.575" y="307.1" type="line"/>
      <point x="467.575" y="134.875" type="line"/>
      <point x="494.975" y="201.575" type="line"/>
      <point x="457.90000000000003" y="157.35000000000002"/>
      <point x="395.15" y="134.075"/>
      <point x="329.02500000000003" y="134.075" type="curve" smooth="yes"/>
      <point x="203.15" y="134.075"/>
      <point x="135.5" y="231.875"/>
      <point x="135.5" y="350.625" type="curve" smooth="yes"/>
      <point x="135.5" y="469.375"/>
      <point x="206.3" y="568.5"/>
      <point x="318.975" y="568.5" type="curve" smooth="yes"/>
      <point x="378.425" y="568.5"/>
      <point x="411.35" y="552.2"/>
      <point x="453.67499999999995" y="499.975" type="curve"/>
      <point x="540.0" y="570.95" type="line"/>
      <point x="473.625" y="651.975"/>
      <point x="418.95000000000005" y="677.65"/>
      <point x="316.625" y="677.65" type="curve" smooth="yes"/>
      <point x="138.3" y="677.65"/>
      <point x="16.375" y="527.925"/>
      <point x="16.375" y="350.625" type="curve" smooth="yes"/>
      <point x="16.375" y="173.65"/>
      <point x="139.6" y="24.925"/>
    </contour>
    <component base="verticalTopCurrencycomb" xOffset="322.7"/>
    <component base="verticalBottomCurrencycomb" xOffset="322.7"/>
  </outline>
</glyph>
<glyph name="verticalTopCurrencycomb" format="2">
  <advance width="300.0"/>
  <anchor x="0.0" y="653.0" name="_TopCurrency"/>
  <outline>
    <contour>
      <point x="-41.75" y="653.0" type="line"/>
      <point x="41.75" y="653.0" type="line"/>
      <point x="41.75" y="775.0" type="line"/>
      <point x="-41.75" y="775.0" type="line"/>
    </contour>
  </outline>
</glyph>
<glyph name="zero.zero" format="2">
  <advance width="648.0"/>
  <outline>
    <contour>
      <point x="140.65" y="130.975" type="line"/>
      <point x="226.97500000000002" y="65.275" type="line"/>
      <point x="501.15" y="576.975" type="line"/>
      <point x="406.75" y="633.225" type="line"/>
    </contour>
    <component base="zero"/>
  </outline>
</glyph>
